<?xml version="1.0" encoding="utf-8"?>
<!-- Generator: Adobe Illustrator 24.0.2, SVG Export Plug-In . SVG Version: 6.00 Build 0)  -->
<svg version="1.1" id="Layer_1" xmlns="http://www.w3.org/2000/svg" xmlns:xlink="http://www.w3.org/1999/xlink" x="0px" y="0px"
	 viewBox="0 0 1024 1024" style="enable-background:new 0 0 1024 1024;" xml:space="preserve">
<style type="text/css">
	.st0{fill:#C2ADCD;}
	.st1{fill:#BFD68D;}
	.st2{fill:#606060;}
	.st3{fill:#CCB576;}
	.st4{fill:#B5CBC2;}
</style>
<circle class="st0" cx="207" cy="829.1" r="88.1"/>
<circle class="st1" cx="766.1" cy="869.3" r="88.1"/>
<path class="st2" d="M645.7,888.3c-42.1,15.1-87.5,23.3-134.7,23.3c-67.7,0-131.6-16.9-187.5-46.8c-8,26.1-24.6,48.4-46.5,63.8
	c69.2,39,149.1,61.3,234,61.3c60.5,0,118.4-11.3,171.7-31.9C663.4,940,650,915.7,645.7,888.3z"/>
<ellipse transform="matrix(0.7071 -0.7071 0.7071 0.7071 -139.0386 182.8916)" class="st3" cx="151.3" cy="259.3" rx="88.1" ry="88.1"/>
<path class="st2" d="M133.1,379.8c-27.4-4.1-51.8-17.4-70.1-36.5c-19.7,52.4-30.6,109.1-30.6,168.3c0,92.4,26.3,178.7,71.9,252
	c14.5-22.5,36.1-40,61.8-49.2c-35.1-59.5-55.3-128.8-55.3-202.8C110.8,465.4,118.7,421.1,133.1,379.8z"/>
<circle class="st4" cx="828.7" cy="207.4" r="88.1"/>
<g>
	<path class="st2" d="M762.9,104.9C689.7,59.3,603.4,33,511,33c-118.4,0-226.9,43.3-310.6,114.8c24.7,11,45.2,29.9,58,53.5
		c68.9-56.2,156.9-90,252.6-90c74,0,143.3,20.2,202.8,55.3C722.9,141,740.4,119.4,762.9,104.9z"/>
	<path class="st2" d="M928.2,277.5c-15.4,21.8-37.8,38.4-63.9,46.4c29.8,56,46.8,119.8,46.8,187.6c0,94.6-33,181.6-88.1,250.2
		c23.8,12.6,42.9,32.9,54,57.6c70.1-83.3,112.4-190.6,112.4-307.7C989.5,426.6,967.2,346.7,928.2,277.5z"/>
</g>
<path class="st2" d="M784.6,321c-6.1-2.4-11.9-5.2-17.4-8.4c-0.9-0.5-1.8-1.1-2.8-1.7c-0.5-0.3-1-0.6-1.4-0.9c-1-0.6-2-1.3-3-2
	c-0.4-0.3-0.7-0.5-1.1-0.7c-1.1-0.8-2.1-1.5-3.2-2.3c-0.3-0.2-0.5-0.4-0.8-0.6c-1.1-0.9-2.2-1.7-3.3-2.6c-0.2-0.2-0.4-0.3-0.6-0.5
	c-1-0.9-2-1.7-3.1-2.6c-0.3-0.2-0.5-0.4-0.8-0.7c-0.9-0.8-1.8-1.7-2.7-2.6c-0.3-0.3-0.6-0.6-0.9-0.9c-0.8-0.8-1.6-1.6-2.4-2.5
	c-0.4-0.4-0.7-0.7-1.1-1.1c-0.7-0.8-1.4-1.6-2.2-2.4c-0.4-0.5-0.8-0.9-1.2-1.4c-0.6-0.7-1.3-1.5-1.9-2.2c-0.5-0.5-0.9-1.1-1.4-1.6
	c-0.6-0.7-1.1-1.4-1.6-2.1c-0.5-0.6-1-1.3-1.4-1.9c-0.5-0.6-0.9-1.3-1.4-2c-0.5-0.7-1-1.4-1.5-2.2c-0.4-0.6-0.8-1.2-1.2-1.8
	c-0.5-0.8-1-1.6-1.5-2.4c-0.4-0.6-0.7-1.2-1-1.8c-0.5-0.9-1-1.7-1.5-2.6c-0.3-0.6-0.6-1.1-0.9-1.7c-0.5-0.9-1-1.8-1.4-2.7
	c-1.4-2.8-2.7-5.6-3.9-8.5C605.5,332.4,489.6,357.7,370.3,329c-38.6-9.3-72.9-23.4-101.4-38c-7.1,26.4-22.9,49.3-44.1,65.4
	c34.1,18.1,75.8,36,123.7,47.9c33.9,8.4,72.7,14.3,115.1,14.3c35.3,0,73.1-4,112.8-13.9l-315.9,315c24,11.8,43.6,31.2,55.6,55.2
	l320.5-319.5c-21.1,83.5-16.5,159.1-3.6,219.5c9.5,44.6,24.1,84.1,39.4,117c17-20.5,40.5-35.3,67.4-41.3
	c-12.1-27.3-23.4-59.4-30.7-95.1C684.6,538.1,710.1,426,784.6,321z"/>
</svg>
