<?xml version="1.0" encoding="UTF-8" standalone="no"?>
<!-- Created with Inkscape (http://www.inkscape.org/) -->

<svg
   xmlns:dc="http://purl.org/dc/elements/1.1/"
   xmlns:cc="http://creativecommons.org/ns#"
   xmlns:rdf="http://www.w3.org/1999/02/22-rdf-syntax-ns#"
   xmlns:svg="http://www.w3.org/2000/svg"
   xmlns="http://www.w3.org/2000/svg"
   xmlns:sodipodi="http://sodipodi.sourceforge.net/DTD/sodipodi-0.dtd"
   xmlns:inkscape="http://www.inkscape.org/namespaces/inkscape"
   width="210mm"
   height="297mm"
   viewBox="0 0 210 297"
   version="1.1"
   id="svg8"
   inkscape:version="0.92.4 5da689c313, 2019-01-14"
   sodipodi:docname="icon.svg">
  <defs
     id="defs2" />
  <sodipodi:namedview
     id="base"
     pagecolor="#e3e3e3"
     bordercolor="#666666"
     borderopacity="1.0"
     inkscape:pageopacity="0"
     inkscape:pageshadow="2"
     inkscape:zoom="0.49497475"
     inkscape:cx="321.52173"
     inkscape:cy="500.61849"
     inkscape:document-units="mm"
     inkscape:current-layer="layer1"
     showgrid="false"
     inkscape:window-width="960"
     inkscape:window-height="1021"
     inkscape:window-x="960"
     inkscape:window-y="0"
     inkscape:window-maximized="0" />
  <metadata
     id="metadata5">
    <rdf:RDF>
      <cc:Work
         rdf:about="">
        <dc:format>image/svg+xml</dc:format>
        <dc:type
           rdf:resource="http://purl.org/dc/dcmitype/StillImage" />
        <dc:title></dc:title>
      </cc:Work>
    </rdf:RDF>
  </metadata>
  <g
     inkscape:label="Layer 1"
     inkscape:groupmode="layer"
     id="layer1">
    <circle
       id="path10"
       cx="125"
       cy="172"
       r="25"
       style="stroke-width:0.26315787;image-rendering:auto;fill:#89bdd3;fill-opacity:1" />
    <circle
       id="path10-3"
       cx="25"
       cy="272"
       r="25"
       style="stroke-width:0.26315787;image-rendering:auto;fill-opacity:1;fill:#9ad3de" />
    <path
       style="fill:none;stroke:#c9c9c9;stroke-width:12;stroke-linecap:round;stroke-linejoin:miter;stroke-miterlimit:4;stroke-dasharray:none;stroke-opacity:1"
       d="M 55,242 95,202"
       id="path46"
       inkscape:connector-curvature="0"
       sodipodi:nodetypes="cc" />
    <path
       style="stroke-width:21.59730148;stroke-linecap:round;stroke-miterlimit:4;stroke-dasharray:none;fill:#9ad3de;fill-opacity:0"
       d="m 455.96845,743.31802 c -38.95602,-7.57729 -69.07156,-37.01829 -76.47808,-74.7651 -2.40717,-12.26798 -1.07651,-35.69207 2.69927,-47.51604 8.79884,-27.55389 31.45931,-50.39799 60.03917,-60.52569 11.2662,-3.99234 13.82666,-4.35835 30.16822,-4.31235 15.50955,0.0436 19.39988,0.56028 29.59215,3.92977 22.21946,7.34559 42.55343,24.43198 53.75377,45.16864 14.07522,26.05928 14.7005,59.92154 1.59693,86.48205 -18.48123,37.46088 -61.4457,59.30463 -101.37143,51.53872 z"
       id="path4933"
       inkscape:connector-curvature="0"
       transform="scale(0.26458333)" />
    <path
       style="fill:#9ad3de;fill-opacity:0;stroke-width:21.59730148;stroke-linecap:round;stroke-miterlimit:4;stroke-dasharray:none"
       d="M 72.277556,1120.3125 C 28.361921,1109.6497 -2.5923188,1068.0609 -0.00153449,1023.2016 2.0214561,988.17352 21.90743,958.21463 53.111311,943.18528 c 15.277763,-7.35853 25.736006,-9.77028 42.142858,-9.71846 49.254981,0.15557 90.460081,39.06238 93.690461,88.46468 2.98192,45.603 -28.14965,87.9657 -72.26189,98.3315 -11.31804,2.6596 -33.553213,2.6844 -44.405184,0.05 z"
       id="path4935"
       inkscape:connector-curvature="0"
       transform="scale(0.26458333)" />
    <path
       style="fill:#9ad3de;fill-opacity:0;stroke-width:21.59730148;stroke-linecap:round;stroke-miterlimit:4;stroke-dasharray:none"
       d="M 72.277556,1120.3125 C 28.361921,1109.6497 -2.5923188,1068.0609 -0.00153449,1023.2016 2.0214561,988.17352 21.90743,958.21463 53.111311,943.18528 c 15.277763,-7.35853 25.736006,-9.77028 42.142858,-9.71846 49.254981,0.15557 90.460081,39.06238 93.690461,88.46468 2.98192,45.603 -28.14965,87.9657 -72.26189,98.3315 -11.31804,2.6596 -33.553213,2.6844 -44.405184,0.05 z"
       id="path4937"
       inkscape:connector-curvature="0"
       transform="scale(0.26458333)" />
    <path
       style="fill:#9ad3de;fill-opacity:0;stroke-width:21.59730148;stroke-linecap:round;stroke-miterlimit:4;stroke-dasharray:none"
       d="M 72.277556,1120.3125 C 28.361921,1109.6497 -2.5923188,1068.0609 -0.00153449,1023.2016 2.0214561,988.17352 21.90743,958.21463 53.111311,943.18528 c 15.277763,-7.35853 25.736006,-9.77028 42.142858,-9.71846 49.254981,0.15557 90.460081,39.06238 93.690461,88.46468 2.98192,45.603 -28.14965,87.9657 -72.26189,98.3315 -11.31804,2.6596 -33.553213,2.6844 -44.405184,0.05 z"
       id="path4939"
       inkscape:connector-curvature="0"
       transform="scale(0.26458333)" />
    <path
       style="fill:#9ad3de;fill-opacity:0;stroke-width:21.59730148;stroke-linecap:round;stroke-miterlimit:4;stroke-dasharray:none"
       d="M 72.277556,1120.3125 C 28.361921,1109.6497 -2.5923188,1068.0609 -0.00153449,1023.2016 2.0214561,988.17352 21.90743,958.21463 53.111311,943.18528 c 15.277763,-7.35853 25.736006,-9.77028 42.142858,-9.71846 49.254981,0.15557 90.460081,39.06238 93.690461,88.46468 2.98192,45.603 -28.14965,87.9657 -72.26189,98.3315 -11.31804,2.6596 -33.553213,2.6844 -44.405184,0.05 z"
       id="path4941"
       inkscape:connector-curvature="0"
       transform="scale(0.26458333)" />
    <path
       style="fill:#9ad3de;fill-opacity:0;stroke-width:21.59730148;stroke-linecap:round;stroke-miterlimit:4;stroke-dasharray:none"
       d="M 72.277556,1120.3125 C 28.361921,1109.6497 -2.5923188,1068.0609 -0.00153449,1023.2016 2.0214561,988.17352 21.90743,958.21463 53.111311,943.18528 c 15.277763,-7.35853 25.736006,-9.77028 42.142858,-9.71846 49.254981,0.15557 90.460081,39.06238 93.690461,88.46468 2.98192,45.603 -28.14965,87.9657 -72.26189,98.3315 -11.31804,2.6596 -33.553213,2.6844 -44.405184,0.05 z"
       id="path4943"
       inkscape:connector-curvature="0"
       transform="scale(0.26458333)" />
    <path
       style="fill:#9ad3de;fill-opacity:0;stroke-width:21.59730148;stroke-linecap:round;stroke-miterlimit:4;stroke-dasharray:none"
       d="M 72.277556,1120.3125 C 28.361921,1109.6497 -2.5923188,1068.0609 -0.00153449,1023.2016 2.0214561,988.17352 21.90743,958.21463 53.111311,943.18528 c 15.277763,-7.35853 25.736006,-9.77028 42.142858,-9.71846 49.254981,0.15557 90.460081,39.06238 93.690461,88.46468 2.98192,45.603 -28.14965,87.9657 -72.26189,98.3315 -11.31804,2.6596 -33.553213,2.6844 -44.405184,0.05 z"
       id="path4945"
       inkscape:connector-curvature="0"
       transform="scale(0.26458333)" />
    <path
       style="fill:#9ad3de;fill-opacity:0;stroke-width:21.59730148;stroke-linecap:round;stroke-miterlimit:4;stroke-dasharray:none"
       d="M 72.277556,1120.3125 C 28.361921,1109.6497 -2.5923188,1068.0609 -0.00153449,1023.2016 2.0214561,988.17352 21.90743,958.21463 53.111311,943.18528 c 15.277763,-7.35853 25.736006,-9.77028 42.142858,-9.71846 49.254981,0.15557 90.460081,39.06238 93.690461,88.46468 2.98192,45.603 -28.14965,87.9657 -72.26189,98.3315 -11.31804,2.6596 -33.553213,2.6844 -44.405184,0.05 z"
       id="path4947"
       inkscape:connector-curvature="0"
       transform="scale(0.26458333)" />
    <path
       style="fill:#9ad3de;fill-opacity:0;stroke-width:21.59730148;stroke-linecap:round;stroke-miterlimit:4;stroke-dasharray:none"
       d="M 72.277556,1120.3125 C 28.361921,1109.6497 -2.5923188,1068.0609 -0.00153449,1023.2016 2.0214561,988.17352 21.90743,958.21463 53.111311,943.18528 c 15.277763,-7.35853 25.736006,-9.77028 42.142858,-9.71846 49.254981,0.15557 90.460081,39.06238 93.690461,88.46468 2.98192,45.603 -28.14965,87.9657 -72.26189,98.3315 -11.31804,2.6596 -33.553213,2.6844 -44.405184,0.05 z"
       id="path4949"
       inkscape:connector-curvature="0"
       transform="scale(0.26458333)" />
    <path
       style="fill:#9ad3de;fill-opacity:0;stroke-width:21.59730148;stroke-linecap:round;stroke-miterlimit:4;stroke-dasharray:none"
       d="m 457.2012,743.8784 c -34.62217,-6.23307 -63.59585,-31.0779 -74.9254,-64.24827 -4.35249,-12.74308 -5.44025,-38.43498 -2.17899,-51.46541 4.21399,-16.83709 12.92725,-32.20603 25.05903,-44.20052 18.85325,-18.6399 37.35394,-27.02829 62.23623,-28.21852 28.46818,-1.36176 51.53723,7.4773 71.55327,27.41611 18.97067,18.89746 27.7374,40.12238 27.7374,67.15434 0,43.53954 -28.24583,80.257 -70.48383,91.62369 -9.67019,2.60234 -29.76279,3.60116 -38.99771,1.93858 z"
       id="path4951"
       inkscape:connector-curvature="0"
       transform="scale(0.26458333)" />
    <path
       style="fill:#9ad3de;fill-opacity:0;stroke-width:21.59730148;stroke-linecap:round;stroke-miterlimit:4;stroke-dasharray:none"
       d="m 457.2012,743.8784 c -34.62217,-6.23307 -63.59585,-31.0779 -74.9254,-64.24827 -4.35249,-12.74308 -5.44025,-38.43498 -2.17899,-51.46541 4.21399,-16.83709 12.92725,-32.20603 25.05903,-44.20052 18.85325,-18.6399 37.35394,-27.02829 62.23623,-28.21852 28.46818,-1.36176 51.53723,7.4773 71.55327,27.41611 18.97067,18.89746 27.7374,40.12238 27.7374,67.15434 0,43.53954 -28.24583,80.257 -70.48383,91.62369 -9.67019,2.60234 -29.76279,3.60116 -38.99771,1.93858 z"
       id="path4953"
       inkscape:connector-curvature="0"
       transform="scale(0.26458333)" />
    <path
       style="fill:#9ad3de;fill-opacity:0;stroke-width:21.59730148;stroke-linecap:round;stroke-miterlimit:4;stroke-dasharray:none"
       d="M 72.277556,1120.3125 C 28.361921,1109.6497 -2.5923188,1068.0609 -0.00153449,1023.2016 2.0214561,988.17352 21.90743,958.21463 53.111311,943.18528 c 15.277763,-7.35853 25.736006,-9.77028 42.142858,-9.71846 49.254981,0.15557 90.460081,39.06238 93.690461,88.46468 2.98192,45.603 -28.14965,87.9657 -72.26189,98.3315 -11.31804,2.6596 -33.553213,2.6844 -44.405184,0.05 z"
       id="path4955"
       inkscape:connector-curvature="0"
       transform="scale(0.26458333)" />
    <path
       style="fill:#9ad3de;fill-opacity:0;stroke-width:21.59730148;stroke-linecap:round;stroke-miterlimit:4;stroke-dasharray:none"
       d="M 72.277556,1120.3125 C 28.361921,1109.6497 -2.5923188,1068.0609 -0.00153449,1023.2016 2.0214561,988.17352 21.90743,958.21463 53.111311,943.18528 c 15.277763,-7.35853 25.736006,-9.77028 42.142858,-9.71846 49.254981,0.15557 90.460081,39.06238 93.690461,88.46468 2.98192,45.603 -28.14965,87.9657 -72.26189,98.3315 -11.31804,2.6596 -33.553213,2.6844 -44.405184,0.05 z"
       id="path4957"
       inkscape:connector-curvature="0"
       transform="scale(0.26458333)" />
    <path
       style="fill:#dea59a;fill-opacity:0;stroke-width:21.59730148;stroke-linecap:round;stroke-miterlimit:4;stroke-dasharray:none"
       d="M 72.277556,1120.3125 C 28.361921,1109.6497 -2.5923188,1068.0609 -0.00153449,1023.2016 2.0214561,988.17352 21.90743,958.21463 53.111311,943.18528 c 15.277763,-7.35853 25.736006,-9.77028 42.142858,-9.71846 49.254981,0.15557 90.460081,39.06238 93.690461,88.46468 2.98192,45.603 -28.14965,87.9657 -72.26189,98.3315 -11.31804,2.6596 -33.553213,2.6844 -44.405184,0.05 z"
       id="path4959"
       inkscape:connector-curvature="0"
       transform="scale(0.26458333)" />
  </g>
</svg>
